<svg xmlns="http://www.w3.org/2000/svg" viewBox="0 0 1603 767" width="1603" height="767">
	<style>
		tspan { white-space:pre }
	</style>
	<path id="&lt;F/&gt; " fill="#2e3349" d="M314.7 635L10 391.9Q1.2 383.1 1.2 372.1Q1.2 361.1 10 354.5L307 118Q310.3 114.7 314.7 119.1L368.6 186.2Q371.9 192.8 369.7 195L149.7 373.2L377.4 558Q380.7 561.3 377.4 566.8L322.4 633.9Q318 638.3 314.7 635ZM1004.4 767L892.2 767Q886.7 767 887.8 761.5L1024.2 5.8Q1025.3 1.4 1029.7 1.4L1144.1 1.4Q1149.6 1.4 1148.5 5.8L1009.9 761.5Q1008.8 767 1004.4 767ZM1594 391.9L1289.3 635Q1286 638.3 1281.6 633.9L1226.6 566.8Q1223.3 561.3 1226.6 558L1454.3 373.2L1234.3 195Q1232.1 192.8 1235.4 186.2L1289.3 119.1Q1293.7 114.7 1297 118L1594 354.5Q1602.8 361.1 1602.8 372.1Q1602.8 383.1 1594 391.9Z" />
	<path id="&lt;F/&gt; " fill="#2b90d9" d="M618.3 767L495.1 767Q489.6 767 489.6 761.5L491.8 5.8Q491.8 1.4 496.2 1.4L848.2 1.4Q853.7 1.4 853.7 5.8L853.7 130.1Q853.7 134.5 849.3 134.5L623.8 134.5L623.8 305L849.3 305Q853.7 305 853.7 310.5L854.8 434.8Q854.8 439.2 849.3 439.2L623.8 439.2L623.8 761.5Q623.8 767 618.3 767Z" />
</svg>